<?xml version="1.0" standalone="no"?>
<!DOCTYPE svg PUBLIC "-//W3C//DTD SVG 20010904//EN"
 "http://www.w3.org/TR/2001/REC-SVG-20010904/DTD/svg10.dtd">
<svg version="1.0" xmlns="http://www.w3.org/2000/svg"
 width="405.000000pt" height="385.000000pt" viewBox="0 0 405.000000 385.000000"
 preserveAspectRatio="xMidYMid meet">

<g transform="translate(0.000000,385.000000) scale(0.100000,-0.100000)"
fill="#000000" stroke="none">
<path d="M1645 3358 c-22 -13 -58 -50 -81 -83 -39 -55 -47 -61 -110 -82 -45
-14 -91 -21 -134 -21 -183 3 -310 -172 -251 -346 15 -44 72 -111 112 -132 33
-16 33 -17 49 -334 14 -292 38 -739 50 -945 5 -93 12 -222 15 -285 3 -63 8
-147 11 -185 l6 -70 -44 -25 c-54 -30 -101 -78 -130 -132 -19 -36 -23 -58 -23
-138 0 -108 15 -147 82 -213 149 -150 381 -115 487 73 l25 45 68 1 c79 1 135
25 187 80 70 74 84 210 30 301 -38 65 -134 123 -205 123 -35 0 -47 21 -82 140
-24 80 -42 163 -66 305 -46 263 -27 863 34 1125 28 119 29 152 7 197 -12 22
-35 52 -52 66 -16 14 -30 32 -30 40 0 20 122 117 147 117 10 0 41 11 69 25
180 90 127 360 -74 372 -46 3 -65 -1 -97 -19z m136 -85 c15 -9 35 -34 44 -55
13 -34 13 -43 1 -73 -16 -38 -67 -75 -106 -76 -27 0 -55 -18 -144 -87 l-55
-44 -27 21 c-44 35 -94 20 -94 -29 0 -6 41 -52 91 -103 128 -129 124 -122 104
-204 -43 -169 -75 -502 -75 -774 0 -137 24 -441 36 -461 9 -14 -16 -38 -40
-38 -12 0 -27 -5 -34 -12 -30 -30 3 -78 54 -78 37 0 47 -13 58 -73 6 -32 4
-37 -11 -37 -27 0 -63 -28 -63 -49 0 -26 23 -42 65 -45 44 -4 46 -6 74 -78 13
-32 28 -61 35 -66 6 -5 39 -12 73 -15 71 -6 110 -25 141 -72 61 -89 22 -200
-84 -241 -40 -15 -47 -15 -93 0 -86 28 -101 21 -114 -52 -15 -78 -97 -152
-178 -160 -72 -7 -111 4 -159 45 -121 104 -101 281 42 354 45 23 141 25 178 4
36 -21 42 -19 67 20 l23 34 -23 16 c-22 16 -63 28 -128 39 l-36 6 -7 98 c-4
53 -13 221 -22 372 -27 502 -34 634 -40 760 l-7 125 34 10 c29 8 35 15 37 43
3 33 1 35 -50 46 -26 6 -28 10 -28 61 0 54 1 55 28 55 35 0 52 16 52 52 0 28
-6 31 -65 40 -15 3 -21 14 -26 48 -7 51 3 70 36 70 40 0 55 11 55 39 0 40 -18
51 -85 51 -104 0 -165 58 -165 156 0 59 26 105 80 142 28 19 46 22 99 21 51
-2 90 5 167 30 100 32 102 34 125 78 27 52 81 103 110 103 12 0 34 -8 50 -17z"/>
<path d="M1325 656 c-24 -36 -5 -68 38 -64 27 2 33 8 35 31 7 55 -44 78 -73
33z"/>
<path d="M2364 3365 c-104 -46 -145 -198 -79 -297 25 -38 106 -88 142 -88 21
0 153 -97 153 -112 0 -5 -20 -32 -45 -60 -65 -73 -67 -93 -26 -290 49 -234 68
-749 36 -1002 -24 -190 -60 -359 -103 -473 -17 -47 -19 -48 -70 -55 -117 -17
-198 -92 -222 -205 -22 -102 30 -213 126 -269 37 -22 59 -27 121 -28 l75 -2
19 -39 c59 -121 206 -194 330 -165 78 18 121 43 170 98 129 143 99 353 -65
459 l-59 38 7 125 c3 69 13 247 21 395 15 275 22 393 50 940 9 171 19 317 23
327 4 9 27 31 52 50 151 114 127 351 -46 437 -37 19 -62 24 -120 23 -54 0 -91
6 -140 24 -37 13 -68 25 -70 27 -1 1 -9 16 -17 32 -58 107 -166 152 -263 110z
m136 -102 c17 -14 41 -47 53 -72 22 -44 25 -47 117 -79 76 -26 110 -33 168
-32 89 1 129 -20 167 -84 32 -54 32 -109 2 -159 -39 -63 -69 -77 -172 -77 -96
0 -115 -8 -115 -45 0 -32 20 -45 71 -45 71 0 79 -6 79 -54 0 -49 -13 -66 -52
-66 -36 0 -55 -32 -39 -66 8 -18 19 -24 41 -24 18 0 33 -6 36 -15 3 -8 1 -92
-5 -187 -6 -95 -18 -306 -26 -468 -8 -162 -20 -367 -25 -455 -5 -88 -12 -222
-16 -298 -7 -149 -10 -157 -69 -157 -34 0 -125 -39 -125 -54 1 -6 12 -24 25
-41 l24 -29 36 17 c52 25 140 22 189 -6 86 -49 131 -147 108 -234 -26 -98
-110 -163 -210 -163 -100 0 -176 63 -206 171 -16 56 -18 59 -50 59 -17 0 -37
-5 -44 -12 -6 -6 -34 -12 -61 -12 -128 0 -206 149 -132 253 31 43 74 63 148
69 35 2 67 10 72 16 5 6 19 39 31 73 21 59 45 83 69 69 5 -4 21 -2 36 4 22 8
26 15 23 42 -2 27 -9 35 -35 43 -36 10 -39 20 -22 78 9 35 12 37 49 37 31 0
43 5 55 24 20 31 5 66 -28 66 -47 0 -52 11 -36 92 10 53 14 174 15 437 l2 364
25 13 c48 26 42 80 -10 86 -23 2 -29 9 -35 38 -41 210 -52 270 -56 298 -4 30
3 40 97 135 75 77 101 110 101 129 0 41 -54 53 -85 18 -22 -24 -38 -25 -56 -4
-30 36 -150 112 -187 117 -76 13 -119 91 -85 157 32 63 92 77 143 33z"/>
<path d="M2676 554 c-17 -45 12 -82 54 -69 25 8 37 50 20 70 -17 20 -66 19
-74 -1z"/>
</g>
</svg>
