<?xml version="1.0" standalone="no"?>
<!DOCTYPE svg PUBLIC "-//W3C//DTD SVG 20010904//EN"
 "http://www.w3.org/TR/2001/REC-SVG-20010904/DTD/svg10.dtd">
<svg version="1.0" xmlns="http://www.w3.org/2000/svg"
 width="477.000000pt" height="352.000000pt" viewBox="0 0 477.000000 352.000000"
 preserveAspectRatio="xMidYMid meet">

<g transform="translate(0.000000,352.000000) scale(0.100000,-0.100000)"
fill="#000000" stroke="none">
<path d="M1635 3276 c-266 -52 -496 -224 -610 -455 -71 -142 -95 -250 -95
-416 0 -218 57 -413 177 -598 l44 -68 -50 -69 c-120 -164 -171 -319 -171 -522
0 -196 44 -342 151 -499 295 -436 992 -580 1519 -314 92 46 196 124 265 196
l65 69 59 0 c72 0 216 24 296 50 477 151 782 616 726 1107 -15 134 -50 252
-107 364 -59 115 -98 168 -191 262 -207 208 -462 311 -763 306 -99 -1 -105 0
-122 22 -108 141 -145 184 -209 244 -161 153 -338 252 -549 307 -99 26 -336
33 -435 14z m305 -80 c228 -32 458 -149 633 -321 86 -84 171 -195 159 -206 -4
-4 -34 -14 -67 -24 -59 -17 -217 -88 -267 -121 -15 -10 -29 -16 -30 -14 -2 3
-25 37 -51 76 -86 129 -221 238 -350 281 -79 27 -239 25 -293 -4 -51 -27 -100
-82 -125 -140 -23 -55 -25 -176 -4 -246 40 -134 144 -274 269 -363 28 -20 28
-22 10 -31 -10 -6 -48 -16 -84 -22 -36 -7 -107 -27 -159 -44 l-93 -32 -40 45
c-22 25 -64 82 -93 127 -30 44 -59 84 -65 88 -18 11 -60 -16 -60 -37 0 -32 68
-141 137 -221 18 -20 33 -41 33 -45 0 -4 -15 -16 -32 -27 -18 -10 -59 -39 -92
-64 l-58 -46 -23 29 c-55 68 -134 255 -162 380 -19 88 -21 271 -4 351 15 73
55 182 88 241 45 80 54 66 27 -40 -12 -46 -15 -94 -12 -194 3 -118 6 -134 25
-153 23 -23 57 -19 67 8 4 9 2 51 -4 95 -18 127 11 275 76 393 37 68 157 184
224 217 79 40 106 49 190 63 98 17 118 17 230 1z m-55 -400 c140 -30 283 -138
372 -280 18 -28 33 -55 33 -60 0 -5 -26 -37 -57 -70 -82 -87 -99 -108 -151
-193 -25 -41 -52 -77 -58 -80 -33 -12 -183 84 -266 171 -97 102 -158 267 -136
369 14 69 67 124 133 142 62 17 58 17 130 1z m1279 -212 c390 -74 709 -416
758 -814 28 -230 -26 -458 -155 -653 -150 -224 -390 -375 -665 -417 -92 -14
-109 -8 -89 30 7 14 26 57 42 95 35 85 42 95 67 95 41 0 176 53 245 96 205
127 326 329 349 579 16 178 -59 421 -123 401 -35 -11 -35 -33 -1 -129 29 -85
31 -102 32 -222 0 -122 -2 -135 -32 -215 -53 -140 -137 -249 -250 -323 -65
-43 -185 -97 -215 -97 -12 0 -14 22 -14 123 0 67 -3 136 -7 154 -7 30 -5 33
46 66 66 42 103 85 136 157 33 71 36 179 7 259 -26 72 -100 152 -173 188 -51
25 -68 28 -152 28 -84 -1 -101 -4 -145 -28 -27 -15 -62 -37 -76 -48 l-27 -21
-68 40 c-38 22 -99 53 -136 68 -38 15 -68 33 -68 39 0 28 128 142 210 188 108
59 165 72 315 72 148 0 182 -7 288 -61 59 -29 93 -31 107 -4 17 32 -4 57 -73
89 -119 56 -169 66 -327 66 -136 -1 -150 -3 -233 -32 -127 -45 -190 -86 -301
-197 l-99 -99 -62 12 c-34 6 -76 11 -92 11 -57 0 -57 20 -2 101 125 183 309
319 519 383 149 45 297 51 464 20z m-854 -612 c231 -62 415 -174 542 -331 119
-148 172 -297 172 -491 1 -240 -78 -419 -262 -594 -291 -275 -834 -348 -1229
-164 -417 194 -609 601 -476 1008 49 151 180 318 328 420 78 54 225 118 330
144 140 35 139 35 340 31 139 -3 197 -8 255 -23z m765 -91 c131 -59 190 -223
126 -348 -22 -44 -96 -116 -113 -111 -13 5 -16 10 -57 102 -39 86 -102 175
-176 248 -54 53 -56 56 -38 73 53 54 181 72 258 36z"/>
<path d="M1897 1380 c-54 -10 -161 -58 -193 -86 -47 -42 -74 -95 -74 -146 0
-57 15 -91 62 -135 138 -132 447 -148 622 -32 128 85 133 231 11 324 -63 49
-158 76 -275 80 -58 2 -127 0 -153 -5z m248 -91 c71 -20 122 -47 155 -85 51
-58 32 -108 -59 -162 -140 -82 -394 -62 -490 39 -70 73 -16 159 125 203 58 17
212 20 269 5z"/>
<path d="M1242 1128 c-32 -32 15 -200 85 -303 45 -67 125 -145 147 -145 19 0
46 27 46 46 0 8 -29 45 -64 84 -73 79 -111 151 -131 247 -8 37 -20 70 -27 74
-19 12 -42 11 -56 -3z"/>
<path d="M2741 1127 c-6 -8 -15 -38 -21 -68 -22 -120 -118 -259 -230 -336
-167 -113 -417 -160 -635 -118 -101 20 -125 15 -125 -25 0 -37 14 -45 126 -64
147 -26 318 -16 464 28 163 50 323 164 405 291 69 106 110 283 69 299 -25 9
-41 7 -53 -7z"/>
</g>
</svg>
