<?xml version="1.0" standalone="no"?>
<!DOCTYPE svg PUBLIC "-//W3C//DTD SVG 20010904//EN"
 "http://www.w3.org/TR/2001/REC-SVG-20010904/DTD/svg10.dtd">
<svg version="1.0" xmlns="http://www.w3.org/2000/svg"
 width="362.000000pt" height="299.000000pt" viewBox="0 0 362.000000 299.000000"
 preserveAspectRatio="xMidYMid meet">

<g transform="translate(0.000000,299.000000) scale(0.100000,-0.100000)"
fill="#000000" stroke="none">
<path d="M1393 2836 c-148 -54 -241 -153 -273 -288 -5 -24 -10 -110 -10 -193
0 -82 -4 -155 -8 -161 -10 -16 -64 -32 -82 -25 -9 3 -35 21 -57 40 -64 51 -73
86 -73 265 0 131 -2 155 -16 160 -9 3 -64 6 -124 6 -82 0 -110 -3 -120 -14 -8
-11 -11 -68 -8 -208 l3 -194 32 -65 c18 -35 50 -82 72 -104 23 -22 41 -46 41
-53 0 -7 -11 -32 -24 -55 -60 -103 -71 -151 -71 -312 0 -132 3 -164 29 -264
42 -170 110 -330 224 -532 72 -128 237 -327 345 -417 146 -122 253 -175 377
-187 230 -23 432 116 597 410 64 116 141 314 169 440 8 33 22 94 31 135 14 61
18 121 18 320 -1 252 -5 292 -47 413 -24 72 -20 87 27 87 70 0 75 8 75 125 0
126 -3 129 -119 124 -106 -5 -107 11 -7 103 42 38 76 76 76 83 0 20 -162 165
-185 165 -12 0 -42 -20 -68 -45 -50 -47 -86 -58 -88 -27 -1 9 0 34 1 54 2 58
-25 70 -147 65 -54 -3 -109 -6 -123 -8 -21 -4 -25 1 -31 38 -10 56 -33 97 -68
122 -26 19 -42 21 -168 20 -116 -1 -148 -4 -200 -23z m168 -61 c0 -8 0 -44 0
-80 0 -36 0 -71 0 -79 -1 -9 -17 -17 -40 -21 -22 -4 -54 -19 -72 -36 l-34 -30
-3 -438 -3 -438 -22 -20 c-35 -32 -165 -96 -182 -89 -12 4 -15 22 -15 80 0 92
5 106 39 106 15 0 36 6 47 14 26 20 8 50 -32 54 -40 5 -54 19 -54 57 0 38 14
52 54 57 40 4 58 34 32 54 -11 8 -32 14 -47 14 -15 0 -29 7 -33 16 -8 20 -8
318 0 338 4 9 18 16 33 16 15 0 36 6 47 14 26 20 8 50 -32 54 -47 6 -57 20
-52 77 10 120 119 249 239 284 56 16 129 14 130 -4z m168 -11 c30 -38 28 -104
-3 -141 -21 -24 -26 -26 -49 -16 -33 15 -51 75 -37 122 19 66 54 80 89 35z
m122 -156 c2 -45 -3 -83 -13 -95 -5 -7 -31 -15 -56 -19 -74 -10 -203 -59 -254
-96 -28 -21 -51 8 -45 56 9 64 32 76 146 76 109 0 148 16 176 70 18 35 45 40
46 8z m186 0 c4 -7 10 -56 13 -108 5 -90 6 -95 28 -98 25 -4 100 48 161 112
19 20 39 36 43 36 5 0 25 -12 44 -27 35 -29 45 -66 20 -80 -40 -23 -146 -129
-146 -145 0 -11 13 -33 29 -49 28 -27 34 -29 114 -29 93 0 97 -2 97 -65 0 -38
-20 -55 -65 -55 -19 0 -41 -14 -74 -49 -45 -46 -51 -49 -117 -58 -38 -4 -191
-8 -341 -8 -259 0 -273 1 -300 21 -42 31 -63 80 -63 149 0 75 25 131 75 172
71 59 158 91 285 108 87 12 90 15 90 99 0 40 3 76 7 79 11 12 92 7 100 -5z
m-1229 -50 c8 -8 12 -52 12 -134 0 -158 4 -175 57 -234 25 -27 43 -57 41 -66
-2 -9 -22 -27 -45 -41 l-43 -25 -37 39 c-21 22 -50 65 -66 96 -26 53 -27 62
-27 210 0 84 3 157 7 160 11 12 88 8 101 -5z m286 -454 c14 -5 16 -42 16 -310
0 -350 6 -327 -101 -362 -105 -34 -184 -47 -211 -35 -31 14 -48 100 -48 239 0
215 81 355 252 438 40 19 74 35 75 36 1 0 8 -3 17 -6z m1253 -176 c20 -41 31
-112 39 -255 7 -144 3 -163 -43 -163 -38 0 -83 24 -158 85 -137 111 -217 140
-385 140 -121 0 -171 -8 -248 -41 -40 -17 -37 -17 -56 2 -21 20 -23 201 -3
228 13 18 16 18 67 1 47 -15 83 -17 329 -12 257 5 385 18 409 41 12 13 37 0
49 -26z m-385 -283 c65 -26 154 -80 161 -99 3 -7 -14 -50 -37 -97 -23 -46 -45
-94 -48 -106 -3 -13 -14 -26 -25 -29 -10 -4 -49 -21 -88 -40 -114 -53 -177
-125 -134 -152 28 -18 35 -16 85 32 53 52 111 83 126 68 5 -5 6 -35 2 -73 -8
-70 -15 -80 -108 -142 -58 -40 -67 -60 -34 -81 14 -8 28 -5 63 14 25 13 45 27
45 31 0 3 11 11 24 17 36 16 50 -6 44 -71 -3 -28 -8 -59 -12 -67 -10 -24 17
-54 40 -46 52 16 72 152 34 226 -31 60 -25 164 17 290 23 72 61 147 78 153 8
4 33 0 56 -8 23 -8 58 -15 79 -15 58 0 64 -13 51 -129 -6 -54 -18 -125 -27
-157 -9 -33 -20 -77 -24 -99 -13 -59 -72 -217 -118 -315 -100 -212 -241 -369
-383 -427 -32 -13 -69 -18 -139 -17 -81 0 -104 4 -153 27 -263 120 -527 451
-696 869 -37 93 -39 116 -8 122 121 22 129 23 143 9 8 -8 17 -26 20 -41 20
-91 100 -264 167 -361 50 -74 156 -179 227 -226 37 -25 72 -45 78 -45 16 0 21
-12 32 -71 6 -29 20 -68 33 -86 31 -47 93 -86 123 -79 35 9 32 47 -6 69 -47
28 -72 70 -68 119 3 38 8 46 48 73 39 26 54 30 110 30 47 -1 77 -7 108 -23 33
-18 47 -20 62 -12 29 15 25 35 -14 65 -78 59 -254 52 -328 -13 -36 -31 -89 -9
-200 82 -77 64 -29 98 144 102 134 3 151 11 108 54 -30 30 -154 28 -252 -5
-108 -37 -109 -36 -162 49 -78 125 -156 317 -142 351 3 8 29 26 58 39 29 14
78 39 108 57 191 111 443 221 469 204 16 -9 13 -40 -7 -77 -10 -18 -30 -65
-45 -104 -15 -40 -36 -78 -45 -86 -9 -8 -51 -27 -92 -43 -200 -76 -220 -89
-188 -121 15 -15 20 -15 74 4 33 11 80 30 107 41 68 29 80 21 71 -46 -7 -57 1
-73 37 -73 19 0 32 29 54 125 19 79 37 132 90 255 20 47 40 95 45 106 5 12 15
24 22 27 20 8 78 -3 140 -28z"/>
<path d="M942 1761 c-8 -4 -12 -19 -10 -32 4 -34 53 -40 63 -8 5 16 2 26 -11
36 -21 15 -24 16 -42 4z"/>
<path d="M893 1573 c-18 -7 -16 -50 3 -57 19 -7 54 10 54 27 0 27 -28 42 -57
30z"/>
</g>
</svg>
