<?xml version="1.0" standalone="no"?>
<!DOCTYPE svg PUBLIC "-//W3C//DTD SVG 20010904//EN"
 "http://www.w3.org/TR/2001/REC-SVG-20010904/DTD/svg10.dtd">
<svg version="1.0" xmlns="http://www.w3.org/2000/svg"
 width="386.000000pt" height="320.000000pt" viewBox="0 0 386.000000 320.000000"
 preserveAspectRatio="xMidYMid meet">

<g transform="translate(0.000000,320.000000) scale(0.100000,-0.100000)"
fill="#000000" stroke="none">
<path d="M603 2914 c-64 -31 -105 -78 -127 -146 -19 -58 -19 -97 -2 -153 10
-32 9 -49 -1 -84 -7 -24 -13 -55 -13 -68 0 -42 39 -136 70 -168 39 -40 38 -61
-4 -105 -36 -36 -66 -110 -66 -159 0 -50 31 -128 71 -176 43 -52 42 -58 -9
-108 -30 -29 -62 -109 -62 -157 0 -48 32 -128 67 -169 18 -22 33 -46 33 -55 0
-9 -15 -32 -34 -52 -35 -37 -66 -115 -66 -165 0 -41 28 -119 58 -158 14 -19
46 -47 72 -63 41 -25 50 -37 65 -84 28 -90 112 -156 217 -170 104 -14 228 70
262 179 12 39 24 58 38 63 33 10 108 84 125 123 10 22 16 66 17 111 1 64 -3
82 -26 120 -14 25 -35 54 -47 64 -29 26 -26 47 10 82 51 48 63 81 63 169 1 87
-18 137 -68 184 -34 32 -33 51 5 87 52 49 63 80 62 169 -1 44 -3 94 -5 110 -3
29 -1 30 42 36 62 8 115 32 162 75 42 37 53 36 86 -9 21 -27 102 -60 162 -65
67 -5 134 21 192 74 43 38 47 38 93 -14 11 -13 49 -33 85 -46 73 -27 69 -17
54 -139 -8 -70 13 -134 63 -190 40 -45 41 -56 7 -88 -68 -63 -92 -184 -55
-278 20 -49 20 -55 6 -77 -20 -31 -41 -30 -99 2 -62 35 -151 37 -216 5 -58
-28 -63 -27 -95 14 -14 20 -45 48 -68 63 -38 24 -51 27 -132 27 -81 0 -94 -3
-132 -27 -46 -30 -83 -75 -104 -128 -19 -48 -17 -147 4 -185 21 -38 21 -78 0
-118 -25 -47 -22 -151 4 -202 43 -81 141 -145 222 -145 20 0 42 -5 49 -12 8
-8 12 -63 12 -181 0 -97 4 -177 10 -188 10 -17 22 -19 114 -19 97 0 103 1 112
23 6 12 11 123 13 247 2 131 7 229 13 235 6 7 15 2 26 -14 41 -59 90 -99 145
-119 32 -12 67 -22 78 -22 48 0 133 34 170 67 38 34 39 35 102 28 77 -8 130 5
188 47 24 17 64 35 89 40 107 19 173 69 217 164 21 46 25 66 20 109 -3 29 -13
68 -22 86 -17 33 -17 33 6 49 54 36 125 116 137 156 27 93 12 172 -49 246 -22
26 -39 52 -39 58 0 7 17 31 38 55 43 49 62 100 62 167 0 63 -16 105 -61 160
-22 26 -39 52 -39 58 0 7 17 31 38 55 78 89 84 220 14 313 -22 29 -24 37 -15
65 23 64 24 97 9 157 -20 78 -62 130 -133 164 -46 23 -65 27 -117 24 -33 -3
-82 -13 -107 -23 -46 -18 -47 -18 -93 3 -88 42 -212 20 -272 -47 -34 -39 -48
-39 -92 0 -104 91 -255 91 -349 0 -39 -37 -65 -39 -86 -7 -9 13 -41 36 -71 50
-98 46 -219 28 -282 -43 -33 -38 -57 -39 -87 -5 -33 40 -118 74 -183 74 -65 0
-153 -37 -178 -75 -21 -32 -50 -32 -79 1 -61 72 -199 94 -294 48z m190 -58
c62 -26 106 -97 107 -170 1 -52 34 -131 55 -131 29 0 41 29 27 68 -30 84 -1
169 76 218 42 27 54 30 109 27 51 -3 69 -9 100 -34 51 -41 67 -77 70 -149 1
-33 2 -63 2 -66 1 -4 11 -9 24 -13 32 -8 47 18 47 81 0 56 15 89 58 131 43 41
81 54 143 50 100 -7 165 -77 174 -187 5 -68 10 -81 30 -81 29 0 45 29 39 74
-9 65 22 127 83 167 43 27 55 30 108 27 66 -4 116 -33 151 -86 19 -29 25 -114
11 -168 -6 -24 -4 -36 8 -48 9 -9 20 -16 25 -16 19 0 41 63 49 135 10 86 32
123 95 160 54 32 144 35 169 7 15 -17 15 -22 -4 -72 -23 -61 -20 -80 15 -80
21 0 29 9 47 50 39 90 105 129 204 118 79 -9 155 -95 155 -175 0 -77 -62 -164
-128 -179 -15 -4 -33 -11 -39 -17 -16 -12 -17 -53 -2 -62 12 -8 97 21 121 42
31 28 61 12 81 -42 18 -47 18 -53 3 -101 -20 -62 -51 -95 -122 -129 -29 -14
-56 -30 -59 -36 -9 -13 23 -49 44 -49 19 0 90 -46 108 -69 7 -9 20 -37 28 -64
15 -43 15 -51 0 -96 -9 -27 -28 -62 -43 -77 -33 -33 -97 -63 -134 -64 -18 0
-29 -7 -33 -20 -9 -29 -1 -37 47 -44 80 -13 138 -62 164 -138 14 -44 14 -52
-1 -97 -61 -185 -313 -176 -360 12 -6 22 -13 27 -36 27 -25 0 -29 -4 -29 -29
0 -84 97 -191 186 -206 86 -14 138 -120 104 -210 -15 -38 -96 -111 -139 -123
-81 -25 -187 41 -211 130 -11 40 -41 58 -65 38 -27 -23 10 -112 69 -169 20
-19 36 -42 36 -51 0 -37 -101 -53 -150 -25 -40 23 -67 18 -87 -15 -28 -48 -86
-83 -146 -87 -45 -4 -59 0 -100 26 -49 32 -84 77 -93 123 -15 68 -89 91 -135
42 -24 -25 -24 -28 -29 -282 l-5 -257 -43 -3 c-30 -2 -44 1 -48 11 -3 8 -6 94
-7 190 -1 96 -5 179 -9 183 -5 4 -45 10 -90 14 -93 7 -109 14 -155 62 -50 53
-67 121 -43 182 11 30 32 33 83 11 47 -19 73 -19 81 1 9 24 -10 51 -43 57 -38
8 -94 57 -115 101 -47 100 14 222 129 256 55 16 109 1 163 -45 45 -39 62 -81
62 -156 0 -50 15 -65 51 -54 14 5 19 16 19 43 0 57 8 76 43 99 47 32 108 39
162 19 66 -26 85 -55 85 -133 0 -69 21 -133 43 -133 8 0 22 9 31 19 16 18 16
22 2 50 -47 91 23 220 137 252 21 6 44 6 59 0 30 -11 58 3 58 29 0 29 -35 43
-94 36 -83 -9 -89 -8 -107 16 -40 53 -30 143 23 204 42 48 77 64 141 64 76 0
130 -36 165 -112 23 -50 31 -58 55 -58 23 0 27 4 27 27 0 95 -127 211 -235
214 -71 1 -122 29 -167 89 -49 67 -44 150 14 216 42 48 77 64 141 64 43 0 63
-6 96 -28 48 -32 63 -53 80 -104 10 -30 18 -38 37 -38 54 0 38 81 -31 157 -35
40 -57 54 -107 71 -68 22 -64 15 -56 102 3 31 0 35 -23 38 -24 3 -29 -3 -44
-43 -22 -56 -82 -112 -130 -121 -51 -9 -114 1 -144 24 -40 29 -79 92 -86 139
-6 44 -28 61 -51 42 -8 -6 -14 -20 -14 -29 0 -35 -38 -106 -74 -137 -114 -101
-300 -12 -300 144 0 29 5 58 12 65 7 7 12 18 12 24 0 17 -28 44 -45 44 -16 0
-45 -81 -45 -129 -1 -80 -73 -173 -145 -187 -94 -17 -166 21 -210 111 -24 48
-31 55 -57 55 -29 0 -30 -2 -24 -32 4 -18 8 -46 9 -63 2 -29 0 -30 -48 -35
-49 -6 -115 -33 -115 -48 0 -4 7 -16 15 -26 13 -18 19 -19 48 -8 55 20 129 15
168 -11 165 -111 89 -346 -112 -347 -43 0 -119 -34 -119 -53 0 -29 29 -42 64
-29 54 20 129 15 167 -11 165 -111 89 -346 -112 -347 -43 0 -119 -34 -119 -53
0 -29 29 -42 64 -29 54 20 129 15 167 -11 139 -94 116 -274 -45 -341 -29 -12
-36 -20 -36 -43 -1 -66 -75 -164 -136 -179 -48 -12 -119 1 -157 30 -38 29 -87
115 -87 152 0 25 -14 38 -50 49 -61 18 -120 105 -120 178 0 56 47 130 101 157
43 23 107 26 155 8 37 -13 64 0 64 32 0 22 -66 50 -119 50 -113 0 -201 85
-201 195 0 54 48 128 101 155 43 23 107 26 155 8 37 -13 64 0 64 32 0 22 -66
50 -119 50 -145 0 -245 146 -182 268 22 42 43 63 88 86 38 19 125 21 153 4 25
-16 54 -1 58 29 2 15 -7 24 -40 36 -24 10 -61 17 -81 17 -45 0 -103 23 -135
53 -31 29 -62 90 -62 122 0 31 21 33 78 5 22 -11 53 -20 67 -20 21 0 25 5 25
29 0 25 -6 31 -35 41 -109 36 -165 161 -116 259 18 35 67 81 101 94 29 11 111
7 143 -7z"/>
<path d="M1127 2706 c-14 -35 23 -67 50 -45 8 7 13 22 11 33 -4 26 -52 35 -61
12z"/>
<path d="M2592 2538 c-15 -15 -16 -45 -2 -53 18 -11 50 6 50 25 0 25 -33 43
-48 28z"/>
<path d="M1753 2453 c-18 -7 -16 -38 2 -53 21 -17 45 -5 45 24 0 18 -21 41
-33 35 -1 0 -8 -3 -14 -6z"/>
<path d="M2367 1264 c-12 -13 -8 -52 7 -57 8 -3 22 1 33 8 14 11 16 18 7 32
-12 19 -36 28 -47 17z"/>
<path d="M1050 1215 c-6 -8 -10 -22 -8 -32 4 -23 43 -29 51 -9 14 35 -21 67
-43 41z"/>
<path d="M737 1173 c-12 -11 -7 -40 8 -53 23 -19 59 15 44 41 -10 19 -39 25
-52 12z"/>
<path d="M1791 1076 c-14 -16 -4 -46 14 -46 26 0 45 13 45 30 0 28 -40 39 -59
16z"/>
<path d="M873 953 c-18 -7 -16 -38 2 -53 20 -17 47 5 43 34 -3 21 -22 29 -45
19z"/>
<path d="M1661 946 c-9 -11 -10 -20 -1 -36 12 -23 28 -23 43 2 22 34 -17 65
-42 34z"/>
</g>
</svg>
