<?xml version="1.0" standalone="no"?>
<!DOCTYPE svg PUBLIC "-//W3C//DTD SVG 20010904//EN"
 "http://www.w3.org/TR/2001/REC-SVG-20010904/DTD/svg10.dtd">
<svg version="1.0" xmlns="http://www.w3.org/2000/svg"
 width="388.000000pt" height="364.000000pt" viewBox="0 0 388.000000 364.000000"
 preserveAspectRatio="xMidYMid meet">

<g transform="translate(0.000000,364.000000) scale(0.100000,-0.100000)"
fill="#000000" stroke="none">
<path d="M1776 3454 c-14 -14 -16 -76 -16 -533 l0 -517 -53 -52 c-62 -61 -82
-67 -71 -19 10 48 7 212 -6 292 -41 255 -176 492 -299 525 -110 29 -234 -34
-375 -189 -190 -212 -446 -728 -506 -1020 -70 -343 -38 -857 72 -1186 145
-431 375 -507 656 -215 207 215 444 695 509 1030 18 98 13 161 -23 236 l-17
36 154 154 c84 85 159 154 164 154 6 0 80 -69 164 -154 l152 -154 -23 -43
c-19 -37 -23 -59 -23 -139 0 -125 31 -242 122 -465 121 -298 261 -526 417
-680 148 -146 273 -184 398 -119 194 100 338 578 338 1120 0 385 -52 588 -255
994 -201 399 -400 620 -583 645 -156 21 -295 -162 -373 -495 -8 -32 -13 -118
-13 -207 -1 -84 -4 -153 -8 -153 -5 0 -31 23 -58 50 l-50 50 0 513 c0 448 -2
515 -16 535 -15 21 -21 22 -189 22 -144 0 -176 -3 -189 -16z m289 -134 l0 -55
-105 0 -105 0 -3 49 c-2 32 1 52 10 58 7 4 56 7 108 6 l95 -3 0 -55z m5 -204
c0 -40 -4 -55 -16 -60 -29 -11 -179 -7 -192 6 -13 13 -17 90 -5 101 3 4 53 7
110 7 l103 0 0 -54z m-750 -61 c15 -8 44 -34 63 -57 159 -195 219 -585 123
-794 -18 -39 -39 -93 -45 -121 -8 -34 -26 -66 -55 -99 -52 -59 -65 -54 -91 37
-19 68 -15 111 16 171 26 51 24 76 -6 88 -37 14 -52 4 -81 -56 -23 -47 -29
-80 -34 -186 0 -11 -61 -28 -101 -28 -44 0 -141 34 -159 55 -18 21 -67 19 -79
-3 -16 -30 -2 -56 45 -85 89 -53 152 -63 303 -45 18 2 29 -4 40 -25 15 -26 15
-29 -4 -43 -33 -25 -146 -52 -240 -57 -154 -9 -268 -66 -338 -169 -35 -52 -41
-66 -38 -100 1 -21 34 -40 55 -32 8 3 26 25 40 48 47 81 120 137 199 151 36 7
37 7 37 -25 0 -78 -96 -294 -172 -387 -42 -50 -47 -87 -16 -107 68 -42 232
233 278 466 6 32 15 60 19 63 5 2 34 7 64 11 l56 7 -10 -34 c-24 -78 -49 -258
-49 -348 0 -103 -18 -199 -49 -259 -27 -51 -76 -99 -111 -107 -38 -8 -54 -29
-46 -60 10 -38 47 -42 112 -10 118 58 184 209 184 422 0 104 19 234 48 330 14
44 22 58 37 58 24 0 61 -71 74 -139 11 -59 30 -81 64 -72 33 8 38 26 26 93
-12 64 -46 140 -84 185 l-25 30 42 39 c24 21 50 38 58 38 8 1 25 -14 37 -32
13 -17 34 -47 49 -65 42 -50 54 -123 39 -218 -44 -261 -252 -706 -433 -924
-180 -216 -325 -257 -430 -122 -140 182 -226 548 -226 972 -1 375 45 555 246
955 171 341 344 552 488 596 38 11 48 10 80 -6z m1418 -16 c157 -77 387 -422
557 -839 104 -253 119 -342 119 -690 0 -266 -4 -314 -44 -520 -50 -256 -151
-464 -251 -515 -124 -65 -304 75 -491 380 -95 156 -209 402 -253 545 -56 184
-66 267 -40 340 16 44 103 160 120 160 6 0 30 -18 54 -39 l44 -38 -37 -48
c-57 -76 -95 -222 -64 -253 28 -28 78 -7 78 33 0 64 66 195 90 180 11 -7 36
-93 55 -187 8 -40 18 -145 24 -234 12 -198 35 -269 116 -350 74 -75 164 -96
178 -43 6 22 -31 69 -54 69 -30 0 -83 56 -112 119 -27 60 -30 81 -38 216 -10
167 -19 240 -44 334 -9 35 -14 66 -11 68 3 3 31 1 63 -3 55 -9 58 -11 61 -39
15 -139 102 -337 199 -453 47 -55 65 -62 95 -35 26 24 23 35 -32 107 -27 36
-50 68 -50 71 0 3 -11 22 -23 43 -47 74 -107 266 -90 283 28 28 162 -43 209
-111 16 -23 39 -54 50 -68 21 -25 22 -26 48 -9 34 23 33 53 -4 110 -82 123
-212 186 -385 187 -63 0 -130 17 -185 45 -27 14 -31 20 -25 43 10 40 18 44 69
31 140 -35 365 56 319 129 -15 25 -49 26 -82 2 -67 -47 -161 -63 -225 -36 -33
14 -33 15 -38 87 -8 115 -58 196 -107 170 -30 -17 -32 -38 -6 -93 15 -32 25
-71 24 -98 0 -49 -29 -142 -45 -147 -16 -5 -94 78 -100 107 -11 47 -34 111
-54 150 -75 147 -62 419 31 641 36 86 97 174 143 203 46 31 72 30 144 -5z
m-668 -134 l0 -56 -107 3 -108 3 -3 39 c-6 65 -4 66 113 66 l105 0 0 -55z m0
-210 l0 -56 -107 3 -108 3 -3 39 c-6 65 -4 66 113 66 l105 0 0 -55z m-2 -208
l3 -58 -108 3 -108 3 -3 43 c-5 67 5 73 117 70 l96 -3 3 -58z m-160 -159 c27
-27 13 -68 -39 -124 -29 -30 -57 -54 -63 -54 -7 0 -29 18 -51 40 l-39 40 57
55 c45 45 62 55 89 55 19 0 39 -5 46 -12z m239 -40 c29 -29 53 -55 53 -59 0
-13 -69 -79 -82 -79 -7 0 -34 21 -60 47 -42 41 -48 52 -48 88 0 51 4 55 49 55
29 0 44 -9 88 -52z m-450 -170 c18 -18 33 -37 33 -42 0 -15 -132 -146 -148
-146 -20 0 -45 69 -38 104 7 32 82 116 106 116 8 0 29 -14 47 -32z m635 -15
c40 -40 48 -53 48 -85 0 -47 -18 -88 -40 -88 -9 0 -47 32 -85 71 l-68 70 39
40 c21 21 43 39 48 39 6 0 32 -21 58 -47z"/>
<path d="M1230 2886 c-92 -30 -174 -104 -241 -216 -44 -74 -47 -113 -10 -125
31 -9 48 4 86 68 20 34 44 71 53 82 38 45 108 96 146 106 51 14 66 26 66 53 0
45 -32 55 -100 32z"/>
<path d="M892 2418 c-30 -30 -3 -82 40 -76 29 4 47 50 28 72 -15 19 -51 21
-68 4z"/>
<path d="M2605 2880 c-26 -29 -8 -66 37 -75 85 -19 167 -93 224 -201 16 -30
36 -56 46 -60 28 -8 58 14 58 43 0 77 -155 255 -254 292 -70 26 -88 26 -111 1z"/>
<path d="M2972 2418 c-17 -17 -15 -65 4 -72 35 -13 74 7 74 39 0 35 -53 58
-78 33z"/>
</g>
</svg>
