<?xml version="1.0" standalone="no"?>
<!DOCTYPE svg PUBLIC "-//W3C//DTD SVG 20010904//EN"
 "http://www.w3.org/TR/2001/REC-SVG-20010904/DTD/svg10.dtd">
<svg version="1.0" xmlns="http://www.w3.org/2000/svg"
 width="512.000000pt" height="512.000000pt" viewBox="0 0 512.000000 512.000000"
 preserveAspectRatio="xMidYMid meet">

<g transform="translate(0.000000,512.000000) scale(0.100000,-0.100000)"
fill="#000000" stroke="none">
<path d="M2459 5107 c-83 -24 -158 -76 -210 -147 -15 -19 -147 -280 -294 -580
-147 -300 -279 -560 -292 -578 -34 -46 -90 -80 -148 -91 -28 -5 -304 -46 -615
-91 -311 -44 -590 -88 -620 -96 -111 -31 -191 -101 -244 -214 -27 -58 -31 -75
-31 -155 0 -80 4 -97 31 -156 38 -79 32 -73 562 -590 222 -216 410 -406 418
-422 34 -65 30 -109 -81 -747 -115 -664 -116 -674 -75 -784 30 -78 104 -157
188 -198 63 -31 73 -33 172 -33 l105 0 93 48 c51 26 95 47 97 47 1 0 5 -40 7
-89 3 -80 6 -94 33 -132 19 -27 50 -54 84 -71 53 -28 54 -28 248 -28 193 0
194 0 218 25 32 31 32 69 0 100 -24 25 -26 25 -210 25 -172 0 -186 1 -205 20
-19 19 -20 33 -20 248 0 220 1 230 21 248 20 18 49 19 869 19 820 0 849 -1
869 -19 20 -18 21 -28 21 -247 0 -222 -1 -229 -22 -249 -21 -20 -32 -20 -534
-20 -502 0 -512 0 -538 -21 -36 -28 -36 -80 0 -108 26 -21 36 -21 549 -21
l523 0 53 28 c34 17 65 44 84 71 27 38 30 52 33 132 2 49 6 89 7 89 2 0 46
-21 97 -48 l93 -47 105 0 c99 0 109 2 172 33 84 41 158 120 188 198 41 110 40
120 -75 784 -111 639 -115 682 -81 747 8 16 194 204 413 418 534 520 529 515
566 593 28 60 32 77 32 157 0 80 -4 97 -31 155 -37 79 -79 128 -142 168 -66
43 -124 56 -402 96 -681 97 -948 138 -976 147 -17 5 -50 26 -73 45 -35 30 -60
74 -150 258 -93 191 -112 224 -138 235 -51 21 -103 -13 -103 -68 0 -38 217
-459 262 -507 48 -52 108 -90 172 -109 25 -8 314 -52 643 -100 329 -47 618
-93 642 -102 84 -30 151 -128 151 -219 0 -43 -25 -110 -52 -142 -13 -15 -214
-214 -448 -442 -234 -228 -437 -429 -452 -446 -16 -18 -40 -58 -54 -89 -49
-106 -47 -124 71 -810 74 -428 105 -632 101 -658 -13 -81 -69 -152 -143 -184
-18 -7 -59 -13 -93 -13 -54 0 -72 6 -180 62 l-120 61 0 86 c0 104 -19 151 -80
203 -40 35 -105 58 -161 58 -20 0 -20 5 -17 203 3 197 4 203 30 253 15 28 61
88 103 134 94 102 150 184 187 271 32 77 58 214 58 308 0 165 -35 426 -86 639
-18 79 -24 132 -24 221 0 136 -14 188 -66 249 -19 23 -59 53 -89 67 -49 24
-63 27 -132 22 -43 -2 -88 -8 -100 -12 -20 -6 -23 -4 -23 17 0 39 -48 124 -92
163 -61 56 -120 78 -205 78 -57 0 -82 -5 -123 -25 l-52 -26 -62 62 c-44 45
-75 67 -110 79 -62 21 -149 22 -209 1 -49 -17 -133 -85 -155 -126 l-13 -24
-60 30 c-116 57 -252 34 -344 -58 -83 -83 -88 -105 -93 -418 l-3 -267 -34 -26
c-82 -62 -179 -238 -217 -392 -31 -125 -31 -344 1 -458 40 -148 116 -284 245
-439 l66 -79 0 -223 c0 -246 6 -224 -66 -239 -43 -8 -113 -70 -135 -119 -13
-30 -19 -65 -19 -127 l0 -87 -120 -61 c-108 -55 -127 -61 -181 -61 -33 0 -74
6 -92 13 -74 32 -130 103 -143 184 -4 26 27 230 101 658 118 683 120 705 73
806 -14 30 -38 70 -54 89 -16 20 -220 222 -454 450 -234 228 -435 427 -448
442 -27 32 -52 99 -52 142 0 91 67 189 151 219 24 9 312 55 640 102 327 47
613 90 635 96 69 19 128 56 178 109 40 43 92 140 330 623 249 504 288 577 324
608 91 78 213 78 303 1 32 -28 62 -78 149 -252 60 -120 116 -220 125 -224 52
-20 106 10 107 59 0 18 -40 112 -101 238 -117 242 -166 304 -272 352 -73 32
-188 42 -260 22z m69 -1717 c18 -11 41 -34 52 -52 19 -31 20 -51 20 -320 l0
-288 -150 0 -150 0 0 288 c0 269 1 289 20 320 42 69 139 94 208 52z m-478
-102 c84 -43 85 -47 88 -319 l3 -240 -153 3 -153 3 -3 208 c-1 123 2 224 8
247 17 64 82 115 150 119 9 1 36 -9 60 -21z m935 -7 c17 -9 40 -37 53 -61 22
-44 23 -49 20 -347 l-3 -301 -31 -39 c-39 -49 -97 -71 -151 -57 l-38 9 3 52
c5 74 -12 126 -53 162 l-35 30 0 214 c0 118 3 228 6 245 14 68 102 128 169
116 17 -3 44 -14 60 -23z m415 -236 c57 -29 60 -47 60 -343 0 -263 -1 -270
-23 -303 -13 -19 -39 -40 -61 -48 -52 -20 -111 0 -143 48 -23 33 -23 39 -23
303 0 294 3 313 58 342 35 20 95 20 132 1z m-710 -477 c0 -36 -23 -87 -52
-115 -78 -75 -207 -101 -409 -83 -71 7 -139 10 -152 6 -63 -16 -100 -80 -78
-135 7 -15 44 -57 84 -93 107 -97 157 -206 157 -344 0 -56 3 -65 26 -83 51
-40 107 -14 120 55 20 106 -41 307 -120 402 -15 16 -26 31 -26 33 0 2 51 4
113 5 164 1 297 42 372 114 l30 29 55 -19 c84 -29 142 -24 251 24 12 5 20 -1
29 -24 31 -74 155 -150 245 -150 54 0 129 28 172 65 l41 35 9 -67 c4 -38 8
-129 8 -203 0 -112 -4 -147 -22 -205 -32 -99 -83 -180 -185 -291 -90 -98 -137
-177 -157 -264 -6 -25 -11 -129 -11 -232 l0 -188 -650 0 -649 0 -3 248 -3 249
-27 39 c-15 21 -59 77 -97 124 -167 203 -233 416 -201 645 24 173 109 346 199
406 l44 29 444 0 c348 0 443 -3 443 -12z"/>
</g>
</svg>
