<?xml version="1.0" standalone="no"?>
<!DOCTYPE svg PUBLIC "-//W3C//DTD SVG 20010904//EN"
 "http://www.w3.org/TR/2001/REC-SVG-20010904/DTD/svg10.dtd">
<svg version="1.0" xmlns="http://www.w3.org/2000/svg"
 width="512.000000pt" height="512.000000pt" viewBox="0 0 512.000000 512.000000"
 preserveAspectRatio="xMidYMid meet">

<g transform="translate(0.000000,512.000000) scale(0.100000,-0.100000)"
fill="#000000" stroke="none">
<path d="M1285 4410 c-31 -12 -48 -38 -48 -71 0 -26 24 -55 166 -197 142 -142
167 -172 167 -197 0 -26 -42 -72 -316 -345 -173 -173 -320 -326 -325 -339 -19
-47 24 -101 79 -101 9 0 142 126 297 280 154 154 285 280 290 280 5 0 34 -24
65 -54 47 -47 70 -60 165 -96 116 -44 198 -84 217 -107 9 -11 -23 -48 -154
-181 -193 -196 -213 -228 -213 -342 0 -122 56 -213 168 -272 34 -19 58 -23
127 -23 106 0 132 13 290 141 l114 94 115 0 115 0 136 -135 c125 -123 140
-135 173 -135 27 0 41 7 56 26 38 48 29 67 -81 180 -89 92 -102 109 -100 135
2 17 -4 41 -12 55 l-16 24 -221 0 -220 0 -125 -102 c-68 -57 -139 -111 -157
-120 -87 -48 -192 7 -213 110 -12 60 10 92 185 265 l168 168 399 -3 399 -3
155 -87 c217 -124 194 -128 391 68 86 86 162 155 168 153 10 -4 689 -649 765
-728 l40 -41 -67 -69 c-74 -76 -85 -113 -47 -151 40 -40 77 -27 155 50 l71 71
30 -16 c46 -24 104 -19 155 14 24 15 108 94 187 174 117 119 142 150 142 174
0 42 -33 73 -77 73 -34 0 -49 -12 -189 -152 l-153 -151 -88 84 c-48 46 -274
261 -501 478 -226 216 -412 396 -412 400 0 3 137 143 305 311 269 269 305 309
305 337 0 43 -28 74 -68 75 -31 1 -58 -23 -349 -313 -173 -173 -321 -326 -329
-341 -18 -35 -18 -101 0 -137 l15 -28 -134 -133 -133 -133 -132 73 c-72 40
-148 79 -168 86 -28 10 -129 13 -411 14 l-373 0 -70 60 c-80 69 -122 92 -265
145 -84 31 -109 45 -149 86 -44 45 -47 50 -36 74 19 41 15 130 -7 173 -23 44
-347 368 -376 375 -11 3 -29 2 -40 -3z"/>
<path d="M21 3324 c-42 -54 -37 -62 192 -292 116 -117 229 -222 249 -233 23
-12 57 -19 90 -19 l53 0 163 -163 162 -162 0 -112 c0 -133 19 -197 79 -265
l38 -43 -33 -41 c-130 -158 -52 -390 144 -429 l57 -12 6 -45 c9 -56 29 -97 71
-138 38 -38 121 -80 159 -80 23 0 28 -5 34 -37 22 -121 108 -209 221 -228 40
-6 42 -8 48 -48 20 -135 155 -238 292 -224 74 8 118 35 214 131 l85 86 110
-110 c125 -124 173 -152 265 -152 135 0 242 93 265 230 6 39 9 42 38 42 49 0
129 43 170 91 34 39 67 118 67 159 0 13 12 19 45 23 113 16 206 109 222 222 5
38 9 45 28 45 114 0 245 131 245 245 0 38 8 47 240 280 261 262 266 270 215
320 -50 50 -60 44 -295 -190 l-215 -215 -280 279 c-188 188 -289 282 -308 287
-43 10 -81 -22 -85 -71 -3 -37 0 -41 287 -329 278 -279 291 -294 291 -330 0
-92 -87 -154 -163 -115 -12 6 -97 85 -188 175 -180 179 -196 188 -244 139 -49
-48 -40 -64 139 -244 90 -91 169 -176 175 -188 40 -79 -30 -172 -122 -160 -35
5 -58 24 -212 176 -184 184 -197 191 -249 150 -18 -14 -26 -30 -26 -52 0 -27
23 -54 169 -202 141 -142 170 -177 176 -208 14 -75 -38 -137 -116 -137 -41 0
-46 4 -213 169 -108 107 -182 172 -199 177 -42 10 -81 -22 -85 -70 -3 -37 2
-43 166 -209 178 -181 192 -202 172 -263 -17 -50 -53 -74 -112 -74 -50 0 -50
0 -161 109 l-110 108 16 42 c20 49 22 127 5 185 -16 55 -109 148 -164 164 -23
7 -57 12 -76 12 -34 0 -35 2 -51 58 -20 72 -71 133 -137 163 -45 20 -49 25
-42 48 3 14 6 50 6 78 -3 110 -84 214 -192 244 -40 11 -118 8 -167 -6 -17 -5
-23 1 -33 28 -7 19 -29 51 -49 72 -100 103 -261 106 -375 7 l-35 -31 -20 22
c-45 49 -53 80 -53 212 0 73 -5 136 -11 148 -6 12 -84 95 -172 184 l-162 163
52 52 c64 66 73 95 40 133 -17 20 -33 28 -56 28 -27 0 -45 -13 -109 -76 -61
-61 -84 -77 -107 -77 -24 0 -62 33 -240 210 -185 184 -214 210 -242 210 -22 0
-38 -8 -52 -26z m1416 -1250 c35 -22 56 -71 48 -111 -5 -26 -30 -59 -98 -130
-101 -105 -128 -123 -183 -123 -54 0 -104 53 -104 111 0 40 5 47 111 155 62
62 121 115 133 117 29 6 67 -1 93 -19z m376 -174 c41 -35 52 -79 33 -123 -8
-18 -82 -99 -165 -182 l-151 -150 -51 0 c-45 0 -54 4 -80 33 -23 26 -29 42
-29 79 0 46 0 47 143 191 78 79 156 153 172 163 45 28 88 24 128 -11z m162
-336 c43 -20 69 -73 60 -121 -5 -27 -30 -60 -107 -139 -55 -56 -115 -110 -135
-119 -61 -29 -117 -6 -153 64 -25 48 -5 87 101 196 130 134 165 152 234 119z
m321 -268 c29 -29 34 -41 34 -82 0 -47 -1 -48 -117 -166 -65 -66 -131 -127
-147 -135 -86 -45 -194 55 -156 146 6 16 67 83 134 150 122 121 123 121 170
121 41 0 53 -5 82 -34z"/>
</g>
</svg>
