<?xml version="1.0" standalone="no"?>
<!DOCTYPE svg PUBLIC "-//W3C//DTD SVG 20010904//EN"
 "http://www.w3.org/TR/2001/REC-SVG-20010904/DTD/svg10.dtd">
<svg version="1.0" xmlns="http://www.w3.org/2000/svg"
 width="512.000000pt" height="512.000000pt" viewBox="0 0 512.000000 512.000000"
 preserveAspectRatio="xMidYMid meet">

<g transform="translate(0.000000,512.000000) scale(0.100000,-0.100000)"
fill="#000000" stroke="none">
<path d="M2522 5108 c-33 -16 -44 -75 -40 -216 3 -121 4 -124 31 -148 15 -13
37 -24 47 -24 10 0 32 11 47 24 27 24 28 27 31 148 5 145 -6 200 -43 216 -31
14 -43 14 -73 0z"/>
<path d="M2225 4545 c-941 -220 -1437 -1250 -1021 -2120 116 -241 292 -443
529 -605 92 -63 131 -105 166 -180 25 -53 26 -64 29 -257 l4 -202 -29 -14
c-35 -18 -65 -52 -87 -94 -23 -46 -22 -214 2 -267 17 -38 17 -41 -1 -77 -16
-32 -18 -56 -15 -147 3 -122 18 -156 86 -203 33 -22 46 -24 189 -27 l153 -3 0
-107 c0 -123 12 -157 73 -206 l39 -31 218 0 218 0 39 31 c61 49 73 83 73 206
l0 107 153 3 c143 3 156 5 189 27 68 47 83 81 86 203 3 91 1 115 -15 147 -18
36 -18 39 -1 77 24 53 25 221 2 267 -21 42 -52 75 -86 93 l-28 15 0 178 c0
284 26 340 226 483 275 195 474 463 574 768 41 126 68 279 54 317 -17 49 -100
58 -124 13 -6 -12 -18 -55 -26 -98 -68 -365 -254 -653 -567 -880 -241 -174
-286 -270 -287 -599 l0 -173 -479 0 -479 0 -4 208 c-5 179 -8 215 -27 266 -43
119 -110 198 -251 293 -706 478 -800 1476 -196 2078 200 199 425 318 706 375
143 28 181 67 129 134 -26 33 -75 34 -214 1z m933 -3517 c7 -7 12 -43 12 -90
0 -75 -1 -79 -26 -88 -15 -6 -245 -10 -584 -10 -339 0 -569 4 -584 10 -25 9
-26 13 -26 88 0 47 5 83 12 90 17 17 1179 17 1196 0z m0 -350 c7 -7 12 -41 12
-83 0 -42 -5 -76 -12 -83 -17 -17 -1179 -17 -1196 0 -7 7 -12 41 -12 83 0 42
5 76 12 83 17 17 1179 17 1196 0z m-420 -425 l-3 -98 -175 0 -175 0 -3 98 -3
97 181 0 181 0 -3 -97z"/>
<path d="M2681 4544 c-52 -66 -15 -105 129 -134 279 -56 492 -167 690 -356
208 -200 348 -463 395 -744 13 -77 20 -99 41 -117 32 -29 56 -29 91 1 23 20
27 31 25 69 -7 182 -114 463 -254 670 -79 118 -264 303 -384 384 -166 113
-368 199 -556 237 -115 24 -152 21 -177 -10z"/>
<path d="M1111 4514 c-39 -50 -30 -69 87 -186 89 -89 113 -108 138 -108 47 0
74 25 74 68 0 34 -9 47 -108 145 -91 91 -112 107 -139 107 -22 0 -38 -8 -52
-26z"/>
<path d="M3817 4432 c-97 -97 -107 -111 -107 -144 0 -43 27 -68 74 -68 25 0
49 19 138 108 117 117 126 136 87 186 -14 18 -30 26 -52 26 -28 0 -48 -16
-140 -108z"/>
<path d="M2415 4164 c-79 -19 -95 -55 -95 -211 l0 -118 -62 -28 -61 -27 -93
89 c-98 96 -138 115 -185 91 -42 -21 -238 -223 -249 -256 -16 -48 1 -79 97
-175 l85 -87 -25 -63 -26 -64 -133 -5 c-73 -3 -141 -9 -151 -14 -39 -19 -47
-57 -47 -230 l0 -166 29 -32 29 -33 137 -5 137 -5 24 -59 24 -59 -89 -92 c-97
-100 -111 -131 -88 -186 19 -44 226 -246 258 -251 49 -8 84 12 171 99 l87 87
63 -26 63 -26 5 -136 c5 -132 6 -136 33 -163 l27 -28 180 0 180 0 27 28 c27
27 28 31 33 163 l5 136 63 26 63 26 87 -87 c87 -87 122 -107 171 -99 32 5 239
207 258 251 23 55 9 86 -88 186 l-89 92 24 59 24 59 137 5 137 5 29 33 29 32
0 166 c0 173 -8 211 -47 230 -10 5 -78 11 -151 14 l-133 5 -26 64 -25 63 85
87 c96 96 113 127 97 175 -11 33 -207 235 -249 256 -47 24 -87 5 -185 -91
l-93 -89 -61 27 -62 28 0 118 c0 199 -12 210 -220 214 -80 1 -154 0 -165 -3z
m235 -282 c0 -150 5 -163 83 -187 28 -9 85 -33 124 -52 54 -26 80 -34 100 -28
15 3 68 46 118 95 l91 89 62 -61 62 -62 -95 -97 c-109 -111 -111 -117 -64
-211 17 -34 38 -84 46 -111 8 -27 25 -60 38 -73 23 -23 30 -24 155 -24 l130 0
0 -90 0 -90 -133 0 c-155 0 -161 -3 -192 -100 -10 -30 -31 -81 -46 -112 -44
-88 -42 -96 66 -207 l94 -97 -62 -62 -61 -62 -97 95 c-110 108 -118 111 -207
66 -31 -15 -82 -36 -112 -46 -97 -31 -100 -37 -100 -192 l0 -133 -90 0 -90 0
0 133 c0 155 -3 161 -100 192 -30 10 -81 31 -112 46 -89 45 -97 42 -207 -66
l-97 -95 -61 62 -62 62 94 97 c108 111 110 119 66 207 -15 31 -36 82 -46 112
-31 97 -37 100 -192 100 l-133 0 0 90 0 90 130 0 c125 0 132 1 155 24 13 13
30 46 38 73 8 27 29 77 46 111 47 94 45 100 -64 211 l-95 97 62 62 62 61 91
-89 c50 -49 103 -92 118 -95 20 -6 46 2 100 28 39 19 96 43 124 52 78 24 83
37 83 187 l0 128 90 0 90 0 0 -128z"/>
<path d="M2445 3457 c-64 -22 -105 -46 -156 -94 -244 -228 -123 -623 211 -685
220 -41 443 138 458 367 8 124 -36 233 -129 320 -75 71 -145 98 -254 102 -55
2 -105 -2 -130 -10z m220 -161 c204 -94 187 -386 -26 -461 -151 -54 -312 53
-326 215 -14 146 99 270 247 270 37 0 72 -8 105 -24z"/>
<path d="M559 3139 c-48 -18 -59 -79 -21 -121 13 -16 35 -18 172 -18 151 0
157 1 178 23 39 41 25 97 -29 116 -39 13 -264 13 -300 0z"/>
<path d="M4254 3136 c-49 -21 -58 -66 -23 -110 l20 -26 158 0 c138 0 160 2
173 18 39 44 27 103 -25 122 -44 15 -265 12 -303 -4z"/>
<path d="M1315 1920 c-11 -4 -66 -55 -122 -113 -108 -109 -119 -130 -88 -174
20 -28 59 -37 93 -19 40 21 212 200 213 222 4 63 -45 105 -96 84z"/>
<path d="M3750 1917 c-35 -17 -51 -53 -39 -86 13 -33 184 -207 219 -221 53
-22 111 27 97 82 -7 27 -203 223 -232 232 -11 3 -31 0 -45 -7z"/>
</g>
</svg>
